<svg xmlns="http://www.w3.org/2000/svg" viewBox="0 0 88.04 34.83"><defs><style>.cls-1{fill:#c20097;}</style></defs><title>logo</title><g id="Layer_2" data-name="Layer 2"><g id="appbar"><g id="Logo"><path id="_2AriuM.tif" data-name="2AriuM.tif" class="cls-1" d="M19.78,34.73l.1.11H20l.11-.11Z"/><path class="cls-1" d="M39.87,9.79v1.7c0,.1,0,.19-.05.28-.13.79-.21,1.59-.4,2.36A15.24,15.24,0,0,1,36.31,20c-.71.89-1.46,1.74-2.25,2.56V34.73h-6V28L25.3,30.34l-4.66,3.91c-.18.15-.35.32-.53.47h-.33l-.16-.16-4-3.32-.84-.7-2.92-2.46v6.63h-6V22.57A28.91,28.91,0,0,1,2.18,18a13.1,13.1,0,0,1-2-9.4A10.51,10.51,0,0,1,5.89,1.07,9.7,9.7,0,0,1,8.07.3C8.64.17,9.22.1,9.79,0h1.64a1.38,1.38,0,0,0,.22.05,10.49,10.49,0,0,1,4.5,1.44,13.21,13.21,0,0,1,2.32,1.78h0c.42.4.83.82,1.22,1.26l.24.25c.36-.38.68-.74,1-1.08l.55-.54A11.18,11.18,0,0,1,26.83.27C27.36.15,27.9.09,28.44,0h1.64L31.2.17a10,10,0,0,1,2.86.94,10.48,10.48,0,0,1,5.52,7C39.71,8.66,39.78,9.23,39.87,9.79Z"/><path class="cls-1" d="M46.7,34.82H41.09V3.67H46.7V16.31h.8A6.74,6.74,0,0,1,50,13.22a7.18,7.18,0,0,1,4-1.09,8.32,8.32,0,0,1,3,.53,6.59,6.59,0,0,1,2.4,1.6A7.39,7.39,0,0,1,61.07,17a12.05,12.05,0,0,1,.58,3.94V34.82H56V22.27a5.62,5.62,0,0,0-1.14-3.72,4,4,0,0,0-3.27-1.36,4.31,4.31,0,0,0-3.72,1.67,7.4,7.4,0,0,0-1.22,4.47Z"/><path class="cls-1" d="M88,29.48v5.34H68.82V25.48L82.7,18.71v-.8H69.08V12.75H87.51v9.08L73.62,28.68v.8Z"/></g></g></g></svg>